<svg width="16" height="13" viewBox="0 0 16 13" fill="none" xmlns="http://www.w3.org/2000/svg">
<path d="M14.0468 0H1.95655C0.877301 0 0 0.877302 0 1.95655V10.2197C0 11.299 0.877301 12.1763 1.95655 12.1763H14.0434C15.1227 12.1763 16 11.299 16 10.2197V1.95986C16.0033 0.880612 15.126 0 14.0468 0ZM15.1094 10.2197C15.1094 10.8057 14.6327 11.2824 14.0468 11.2824H1.95655C1.37058 11.2824 0.893854 10.8057 0.893854 10.2197V1.95986C0.893854 1.37389 1.37058 0.897165 1.95655 0.897165H14.0434C14.6294 0.897165 15.1061 1.37389 15.1061 1.95986V10.2197H15.1094Z" fill="white"/>
<path d="M10.0886 5.98544L14.0017 2.47623C14.1838 2.3107 14.2004 2.0293 14.0348 1.84391C13.8693 1.66183 13.5879 1.64528 13.4025 1.81081L8.0063 6.65417L6.95354 5.71397C6.95023 5.71066 6.94692 5.70735 6.94692 5.70404C6.92374 5.68086 6.90057 5.661 6.87408 5.64114L2.59021 1.8075C2.40481 1.64197 2.12341 1.65852 1.95789 1.84391C1.79236 2.0293 1.80891 2.3107 1.9943 2.47623L5.95374 6.01523L2.01086 9.70652C1.83208 9.87536 1.82215 10.1568 1.99099 10.3388C2.08038 10.4315 2.19956 10.4812 2.31874 10.4812C2.42799 10.4812 2.53724 10.4415 2.62331 10.362L6.62579 6.61775L7.71166 7.58775C7.79773 7.6639 7.90367 7.70031 8.00961 7.70031C8.11555 7.70031 8.2248 7.66058 8.30756 7.58444L9.42322 6.58465L13.4025 10.3653C13.4886 10.4481 13.6012 10.4878 13.7104 10.4878C13.8296 10.4878 13.9455 10.4415 14.0348 10.3488C14.2037 10.17 14.1971 9.88529 14.0183 9.71645L10.0886 5.98544Z" fill="white"/>
</svg>
