<svg width="48" height="48" viewBox="0 0 48 48" fill="none" xmlns="http://www.w3.org/2000/svg">
<g clip-path="url(#clip0_812_929)">
<path d="M17.6001 30.8954L20.0382 17.1812H23.8477L21.4858 30.8954H17.6001Z" fill="#3C58BF"/>
<path d="M17.6001 30.8954L20.7239 17.1812H23.8477L21.4858 30.8954H17.6001Z" fill="#293688"/>
<path d="M35.276 17.3332C34.5141 17.0284 33.2951 16.7236 31.7713 16.7236C27.9618 16.7236 25.2189 18.6284 25.2189 21.3713C25.2189 23.4284 27.1237 24.4951 28.6475 25.1808C30.1713 25.8665 30.6284 26.3236 30.6284 26.9332C30.6284 27.8474 29.4094 28.3046 28.3427 28.3046C26.8189 28.3046 25.9808 28.076 24.6856 27.5427L24.1522 27.3141L23.6189 30.4379C24.5332 30.8189 26.2094 31.1998 27.9618 31.1998C31.9999 31.1998 34.6665 29.2951 34.6665 26.3998C34.6665 24.7998 33.676 23.5808 31.3903 22.5903C30.0189 21.9046 29.1808 21.5236 29.1808 20.8379C29.1808 20.2284 29.8665 19.6189 31.3903 19.6189C32.6856 19.6189 33.5999 19.8474 34.2856 20.1522L34.6665 20.3046L35.276 17.3332Z" fill="#3C58BF"/>
<path d="M35.276 17.3332C34.5141 17.0284 33.2951 16.7236 31.7713 16.7236C27.9618 16.7236 25.9046 18.6284 25.9046 21.3713C25.9046 23.4284 27.1237 24.4951 28.6475 25.1808C30.1713 25.8665 30.6284 26.3236 30.6284 26.9332C30.6284 27.8474 29.4094 28.3046 28.3427 28.3046C26.8189 28.3046 25.9808 28.076 24.6856 27.5427L24.1522 27.3141L23.6189 30.4379C24.5332 30.8189 26.2094 31.1998 27.9618 31.1998C31.9999 31.1998 34.6665 29.2951 34.6665 26.3998C34.6665 24.7998 33.676 23.5808 31.3903 22.5903C30.0189 21.9046 29.1808 21.5236 29.1808 20.8379C29.1808 20.2284 29.8665 19.6189 31.3903 19.6189C32.6856 19.6189 33.5999 19.8474 34.2856 20.1522L34.6665 20.3046L35.276 17.3332Z" fill="#293688"/>
<path d="M41.8295 17.1812C40.9152 17.1812 40.2295 17.2573 39.8486 18.1716L34.1343 30.8954H38.2486L39.0105 28.6097H43.8867L44.3438 30.8954H48.0009L44.8009 17.1812H41.8295ZM40.0771 26.324C40.3057 25.6383 41.6009 22.2859 41.6009 22.2859C41.6009 22.2859 41.9057 21.4478 42.1343 20.9145L42.3628 22.2097C42.3628 22.2097 43.1248 25.6383 43.2771 26.4002H40.0771V26.324Z" fill="#3C58BF"/>
<path d="M42.7438 17.1812C41.8295 17.1812 41.1438 17.2573 40.7628 18.1716L34.1343 30.8954H38.2486L39.0105 28.6097H43.8867L44.3438 30.8954H48.0009L44.8009 17.1812H42.7438ZM40.0771 26.324C40.3819 25.5621 41.6009 22.2859 41.6009 22.2859C41.6009 22.2859 41.9057 21.4478 42.1343 20.9145L42.3628 22.2097C42.3628 22.2097 43.1248 25.6383 43.2771 26.4002H40.0771V26.324Z" fill="#293688"/>
<path d="M10.5908 26.7811L10.2098 24.8002C9.52408 22.5145 7.31456 20.0002 4.87646 18.7811L8.30504 30.9716H12.4193L18.5908 17.2573H14.4765L10.5908 26.7811Z" fill="#3C58BF"/>
<path d="M10.5908 26.7811L10.2098 24.8002C9.52408 22.5145 7.31456 20.0002 4.87646 18.7811L8.30504 30.9716H12.4193L18.5908 17.2573H15.2384L10.5908 26.7811Z" fill="#293688"/>
<path d="M0 17.1812L0.685714 17.3335C5.5619 18.4764 8.91428 21.3716 10.2095 24.8002L8.83809 18.324C8.60952 17.4097 7.92381 17.1812 7.08571 17.1812H0Z" fill="#FFBC00"/>
<path d="M0 17.1812C4.87619 18.324 8.91428 21.2954 10.2095 24.724L8.91428 19.3145C8.68571 18.4002 7.92381 17.8669 7.08571 17.8669L0 17.1812Z" fill="#F7981D"/>
<path d="M0 17.1812C4.87619 18.324 8.91428 21.2954 10.2095 24.724L9.29524 21.7526C9.06667 20.8383 8.7619 19.924 7.69524 19.5431L0 17.1812Z" fill="#ED7C00"/>
<path d="M14.3998 26.3236L11.8093 23.7332L10.5902 26.6284L10.2855 24.7236C9.59977 22.4379 7.39024 19.9236 4.95215 18.7046L8.38072 30.8951H12.495L14.3998 26.3236Z" fill="#051244"/>
<path d="M21.4858 30.8949L18.2096 27.5425L17.6001 30.8949H21.4858Z" fill="#051244"/>
<path d="M30.2475 26.1714C30.5522 26.4761 30.7046 26.7047 30.6284 27.0095C30.6284 27.9238 29.4094 28.3809 28.3427 28.3809C26.8189 28.3809 25.9808 28.1523 24.6856 27.619L24.1522 27.3904L23.6189 30.5142C24.5332 30.8952 26.2094 31.2761 27.9618 31.2761C30.3998 31.2761 32.3808 30.5904 33.5237 29.3714L30.2475 26.1714Z" fill="#051244"/>
<path d="M34.6665 30.895H38.2475L39.0094 28.6093H43.8856L44.3427 30.895H47.9998L46.7046 25.3331L42.1332 20.9141L42.3617 22.1331C42.3617 22.1331 43.1236 25.5617 43.276 26.3236H40.076C40.3808 25.5617 41.5998 22.2855 41.5998 22.2855C41.5998 22.2855 41.9046 21.4474 42.1332 20.9141" fill="#051244"/>
</g>
<defs>
<clipPath id="clip0_812_929">
<rect width="48" height="48" fill="white"/>
</clipPath>
</defs>
</svg>
